<svg width="86" height="86" viewBox="0 0 86 86" fill="none" xmlns="http://www.w3.org/2000/svg">
<path d="M43.25 85C66.3079 85 85 66.3079 85 43.25C85 20.1921 66.3079 1.5 43.25 1.5C20.1921 1.5 1.5 20.1921 1.5 43.25C1.5 66.3079 20.1921 85 43.25 85Z" stroke="#D1E0E0" stroke-width="1.5"/>
<path d="M42.7842 63.5719C42.5433 63.5719 42.3023 63.4916 42.1417 63.4114C42.1417 63.4114 39.6521 62.0468 36.3595 59.7191C35.9579 59.4783 35.5564 59.1572 35.1548 58.9165C31.7015 56.4282 28.7301 53.8597 26.4815 51.3715C26.2405 51.1307 25.9996 50.8096 25.7587 50.5687C23.51 47.92 21.9842 45.4317 21.2614 43.0237C21.1811 42.7026 21.1008 42.4619 21.0204 42.1408C20.7795 41.2579 20.6992 40.4552 20.6992 39.6526C20.6992 32.7496 26.3208 27.0508 33.3077 27.0508H33.4683C36.8413 27.0508 40.2143 28.4956 42.5433 31.0641C42.5433 31.0641 42.7842 31.3048 42.8645 31.3851C42.9448 31.3048 43.1857 31.0641 43.1857 31.0641C45.5147 28.4956 48.8877 27.0508 52.2607 27.0508C56.9186 27.0508 61.175 29.539 63.4237 33.6326C63.5843 33.8734 63.6645 34.1944 63.8251 34.5155C64.5479 36.1209 64.9495 37.8867 64.9495 39.6526C64.9495 40.4552 64.8692 41.2579 64.6282 42.1408C64.5479 42.4619 64.4677 42.7026 64.3874 43.0237C63.6645 45.4317 62.219 48.0002 59.9703 50.5687C59.7294 50.8898 59.4885 51.1307 59.2475 51.3715C56.9989 53.8597 54.0275 56.4282 50.5742 58.9165C50.1726 59.2375 49.7711 59.4783 49.3695 59.7191C46.0769 61.9665 43.507 63.3311 43.507 63.4114C43.1857 63.4916 43.0251 63.5719 42.7842 63.5719ZM38.4475 59.7994C40.9371 61.485 42.7039 62.4482 42.7039 62.4482C42.7039 62.4482 42.7039 62.4482 42.7842 62.3679C42.7842 62.3679 44.551 61.4047 47.0406 59.7191H38.4475V59.7994ZM48.8074 58.5954C52.2607 56.1874 55.1518 53.7794 57.4807 51.3715H28.168C30.4969 53.7794 33.388 56.1874 36.8413 58.5954H48.8074ZM58.6051 50.2477C60.8538 47.7594 62.3796 45.3514 63.1024 43.0237H22.466C23.2691 45.2712 24.795 47.6791 27.0436 50.2477H58.6051ZM63.4237 41.9C63.5843 41.0974 63.6645 40.3749 63.6645 39.5723C63.6645 37.8867 63.263 36.2012 62.5403 34.6761H43.3464V41.9H63.4237ZM42.222 41.9V32.4287L42.0614 32.1878C39.9734 29.6193 36.8413 28.1745 33.4683 28.1745H33.3077C27.0436 28.1745 21.9038 33.3115 21.9038 39.5723C21.9038 40.2947 21.9842 41.0171 22.2251 41.9H42.222ZM61.8977 33.5524C59.8098 30.1811 56.1958 28.1745 52.1803 28.1745C48.8074 28.1745 45.6753 29.6193 43.507 32.1878L43.3464 32.4287V33.5524H61.8977Z" fill="#D1E0E0"/>
<path d="M63.5858 34.5152C63.4252 34.1941 63.3449 33.9533 63.1843 33.7124C61.0963 29.8597 57.0005 27.2109 52.2622 27.2109C48.8089 27.2109 45.5163 28.6557 43.1873 31.1439C43.0267 31.3045 42.8661 31.465 42.7858 31.6256C42.6251 31.465 42.5448 31.3045 42.3842 31.1439C40.0553 28.6557 36.7626 27.2109 33.3092 27.2109C26.483 27.2109 20.8613 32.7493 20.8613 39.6522C20.8613 40.4549 20.9417 41.2575 21.1826 42.1405C21.2629 42.3812 21.3432 42.7023 21.4236 42.9431C22.2266 45.5919 23.8328 48.0802 25.8406 50.4881C26.0814 50.8092 26.3224 51.0499 26.5633 51.2908C29.2135 54.1804 32.4258 56.8292 35.2367 58.8358C35.6383 59.1569 36.0397 59.3977 36.4413 59.6385C39.5733 61.8057 41.9827 63.1702 42.2236 63.3308C42.5448 63.5716 43.0267 63.5716 43.3479 63.3308C43.5888 63.1702 46.0784 61.8057 49.2105 59.6385C49.612 59.3977 50.0136 59.0766 50.4151 58.8358C53.2259 56.8292 56.4383 54.2607 59.0885 51.2908C59.3294 51.0499 59.5703 50.729 59.8113 50.4881C61.819 48.1604 63.4252 45.5919 64.2283 42.9431C64.3086 42.7023 64.3889 42.3812 64.4692 42.1405C64.6299 41.3377 64.7904 40.5351 64.7904 39.6522C64.7101 37.8061 64.3086 36.1204 63.5858 34.5152ZM43.1873 32.3479L43.4282 32.1072C45.5966 29.5387 48.8089 28.0136 52.1819 28.0136C56.4383 28.0136 60.1326 30.261 62.2205 33.7124H43.1873V32.3479ZM21.7447 39.5719C21.7447 33.1506 26.9648 28.0136 33.3092 28.0136H33.4699C36.8429 28.0136 39.9749 29.5387 42.1433 32.1072L42.3842 32.3479V42.0602H22.066C21.8251 41.2575 21.7447 40.4548 21.7447 39.5719ZM42.9464 62.528C42.8661 62.6083 42.7858 62.6083 42.7858 62.6083H42.7055C42.6251 62.528 40.6174 61.4846 37.9672 59.6385H47.6846C44.9541 61.4043 43.0267 62.528 42.9464 62.528ZM48.8892 58.7555H36.7626C33.9518 56.7489 30.5787 54.1804 27.768 51.2105H57.8839C55.073 54.1804 51.7001 56.8292 48.8892 58.7555ZM58.6066 50.4079H26.9648C24.7965 48.0802 23.11 45.5116 22.2266 42.8628H63.2646C62.4615 45.5116 60.775 48.0802 58.6066 50.4079ZM63.5055 42.0602H43.1873V34.5152H62.6221C63.3449 36.0402 63.8267 37.7258 63.8267 39.5719C63.8267 40.4548 63.7465 41.2575 63.5055 42.0602Z" fill="#D1E0E0"/>
</svg>
