<svg width="86" height="86" viewBox="0 0 86 86" fill="none" xmlns="http://www.w3.org/2000/svg">
<path d="M43.25 85C66.3079 85 85 66.3079 85 43.25C85 20.1921 66.3079 1.5 43.25 1.5C20.1921 1.5 1.5 20.1921 1.5 43.25C1.5 66.3079 20.1921 85 43.25 85Z" stroke="#D1E0E0" stroke-width="1.5"/>
<path d="M52.3079 39.8418H34.7422" stroke="#D1E0E0" stroke-width="1.5" stroke-miterlimit="10" stroke-linecap="round" stroke-linejoin="round"/>
<path d="M60.106 52.6167L48.0167 31.6032V24.5989C49.0499 24.5989 49.8765 23.7748 49.8765 22.7447C49.8765 21.7147 49.0499 20.8906 48.0167 20.8906H39.2338C38.2005 20.8906 37.3739 21.7147 37.3739 22.7447C37.3739 23.7748 38.2005 24.5989 39.2338 24.5989V31.5003L27.0411 52.6167C24.7679 56.634 27.6611 61.5782 32.3108 61.5782H54.9396C59.486 61.5782 62.3792 56.634 60.106 52.6167Z" stroke="#D1E0E0" stroke-width="1.5" stroke-miterlimit="10" stroke-linecap="round" stroke-linejoin="round"/>
</svg>
