<svg width="86" height="86" viewBox="0 0 86 86" fill="none" xmlns="http://www.w3.org/2000/svg">
<path d="M43.25 85C66.3079 85 85 66.3079 85 43.25C85 20.1921 66.3079 1.5 43.25 1.5C20.1921 1.5 1.5 20.1921 1.5 43.25C1.5 66.3079 20.1921 85 43.25 85Z" stroke="#D1E0E0" stroke-width="1.5"/>
<path d="M42.9498 43.2963C48.6567 34.2749 61.1658 40.3312 58.7562 50.5547C56.3928 60.5606 42.9498 65.8498 42.9498 65.8498C42.9498 65.8498 29.5068 60.5606 27.1433 50.5547C24.7338 40.3312 37.2429 34.2749 42.9498 43.2963Z" stroke="#D1E0E0" stroke-width="1.5" stroke-miterlimit="10" stroke-linecap="round" stroke-linejoin="round"/>
<path d="M32.6211 28.5627C32.6211 31.1614 34.4888 33.2678 36.7947 33.2678C39.1004 33.2678 40.9683 31.1614 40.9683 28.5627C40.9683 25.9639 39.1004 23.8574 36.7947 23.8574C34.4888 23.8574 32.6211 25.9639 32.6211 28.5627Z" stroke="#D1E0E0" stroke-width="1.5" stroke-miterlimit="10" stroke-linecap="round" stroke-linejoin="round"/>
<path d="M44.9219 28.5627C44.9219 31.1614 46.7895 33.2678 49.0955 33.2678C51.4012 33.2678 53.269 31.1614 53.269 28.5627C53.269 25.9639 51.4012 23.8574 49.0955 23.8574C46.7895 23.8574 44.9219 25.9639 44.9219 28.5627Z" stroke="#D1E0E0" stroke-width="1.5" stroke-miterlimit="10" stroke-linecap="round" stroke-linejoin="round"/>
<path d="M56.7862 32.3971C56.0367 34.5608 56.9821 36.8619 58.9075 37.5144C60.8328 38.167 63.0004 36.9421 63.7498 34.7784C64.4991 32.6145 63.5537 30.3135 61.6284 29.661C59.703 28.997 57.5355 30.2219 56.7862 32.3971Z" stroke="#D1E0E0" stroke-width="1.5" stroke-miterlimit="10" stroke-linecap="round" stroke-linejoin="round"/>
<path d="M28.7702 32.3971C29.5197 34.5608 28.5743 36.8619 26.6489 37.5144C24.7236 38.167 22.5561 36.9421 21.8066 34.7784C21.0573 32.6145 22.0026 30.3135 23.928 29.661C25.8534 28.997 28.0208 30.2219 28.7702 32.3971Z" stroke="#D1E0E0" stroke-width="1.5" stroke-miterlimit="10" stroke-linecap="round" stroke-linejoin="round"/>
</svg>
