<svg width="86" height="86" viewBox="0 0 84 84" fill="none" xmlns="http://www.w3.org/2000/svg">
<path d="M42 83C64.6437 83 83 64.6437 83 42C83 19.3563 64.6437 1 42 1C19.3563 1 1 19.3563 1 42C1 64.6437 19.3563 83 42 83Z" stroke="#D1E0E0" stroke-width="1.5"/>
<path d="M55.3025 55.2309C55.631 55.2309 55.8974 54.9646 55.8974 54.6359V38.7411C55.8974 34.4063 53.6972 29.291 49.3574 23.5376C46.1536 19.2896 42.9008 16.2463 42.8679 16.2159C42.636 16.001 42.2772 16.0039 42.0502 16.2226C41.5187 16.7341 29.0273 28.8694 29.0273 38.7409V54.6358C29.0273 54.9644 29.2933 55.2308 29.6223 55.2308H41.8677V62.4508H37.9888C37.6601 62.4508 37.3938 62.7172 37.3938 63.0458C37.3938 63.3744 37.6598 63.6408 37.9888 63.6408H46.9364C47.265 63.6408 47.5314 63.3744 47.5314 63.0458C47.5314 62.7172 47.2654 62.4508 46.9364 62.4508H43.0575V55.2308L55.3025 55.2309ZM30.218 54.0414V38.7413C30.218 30.3405 40.3016 19.6792 42.4697 17.4848C44.6475 19.6265 54.7087 29.9968 54.7087 38.7413V54.0414L43.0581 54.0418V48.5155L51.5789 40.5988C51.8195 40.3751 51.8333 39.9989 51.6096 39.7582C51.3852 39.5171 51.0088 39.5034 50.769 39.7275L43.0581 46.8915V37.5381L47.5946 33.3231C47.8353 33.0995 47.849 32.7232 47.6253 32.4826C47.4013 32.2415 47.0245 32.2279 46.7847 32.4519L43.0581 35.9142V28.7378C43.0581 28.4092 42.7921 28.1428 42.4631 28.1428C42.1346 28.1428 41.8682 28.4092 41.8682 28.7378V35.9142L38.1416 32.4519C37.9018 32.2286 37.5259 32.2423 37.301 32.4826C37.0773 32.7232 37.0914 33.0995 37.3317 33.3231L41.8682 37.5381V46.8915L34.1573 39.7275C33.9175 39.5043 33.5416 39.5171 33.3167 39.7582C33.0931 39.9989 33.1071 40.3751 33.3474 40.5988L41.8682 48.5155V54.0418L30.218 54.0414Z" fill="#D1E0E0"/>
</svg>
