<svg width="86" height="86" viewBox="0 0 86 86" fill="none" xmlns="http://www.w3.org/2000/svg">
<path d="M52.1148 62.4706L22.2969 31.2539" stroke="#D1E0E0" stroke-width="1.5" stroke-miterlimit="10" stroke-linecap="round" stroke-linejoin="round"/>
<path d="M43.25 85C66.3079 85 85 66.3079 85 43.25C85 20.1921 66.3079 1.5 43.25 1.5C20.1921 1.5 1.5 20.1921 1.5 43.25C1.5 66.3079 20.1921 85 43.25 85Z" stroke="#D1E0E0" stroke-width="1.5"/>
<path d="M48.6919 38.4793C56.9294 47.1228 52.4921 62.8667 52.4921 62.8667C52.4921 62.8667 36.0381 66.0051 28.2809 57.8829C21.3902 50.6469 21.8705 30.7637 21.8705 30.7637C21.8705 30.7637 41.8012 31.2433 48.6919 38.4793Z" stroke="#D1E0E0" stroke-width="1.5" stroke-miterlimit="10" stroke-linecap="round" stroke-linejoin="round"/>
<path d="M53.5986 47.1122C56.5636 46.4553 59.6228 45.1312 61.7735 42.5558C66.482 36.884 65.177 22.3184 65.177 22.3184C65.177 22.3184 50.5917 23.7049 45.8831 29.3665C44.6302 30.8783 43.8785 32.6926 43.4609 34.5797" stroke="#D1E0E0" stroke-width="1.5" stroke-miterlimit="10" stroke-linecap="round" stroke-linejoin="round"/>
<path d="M49.6523 39.1148L64.6865 22.8809" stroke="#D1E0E0" stroke-width="1.5" stroke-miterlimit="10" stroke-linecap="round" stroke-linejoin="round"/>
</svg>
