<svg width="86" height="86" viewBox="0 0 81 81" fill="none" xmlns="http://www.w3.org/2000/svg">
<path d="M26.6735 40.7621H27.3333V40.7613L26.6735 40.7621ZM40.5125 17.3907L40.9821 16.9272C40.858 16.8015 40.6886 16.7307 40.5119 16.7308C40.3352 16.731 40.1659 16.802 40.042 16.928L40.5125 17.3907ZM41.1172 18.2186C41.117 17.8542 40.8215 17.5589 40.4571 17.559C40.0927 17.5592 39.7974 17.8548 39.7976 18.2192L41.1172 18.2186ZM39.8199 63.1154C39.8201 63.4798 40.1157 63.775 40.4801 63.7748C40.8445 63.7747 41.1397 63.4792 41.1396 63.1147L39.8199 63.1154ZM34.0384 41.449C33.7809 41.1911 33.3631 41.1909 33.1052 41.4484C32.8474 41.7059 32.8471 42.1237 33.1046 42.3816L34.0384 41.449ZM40.3456 48.6983L39.8787 49.1646C40.0025 49.2885 40.1706 49.3582 40.3458 49.3581C40.5211 49.358 40.6891 49.2883 40.8128 49.1642L40.3456 48.6983ZM47.587 42.3699C47.8443 42.1119 47.8437 41.6941 47.5856 41.4368C47.3275 41.1795 46.9098 41.1801 46.6525 41.4382L47.587 42.3699ZM34.0384 33.0225C33.7809 32.7647 33.3631 32.7644 33.1052 33.0219C32.8474 33.2794 32.8471 33.6972 33.1046 33.9551L34.0384 33.0225ZM40.3456 40.2717L39.8787 40.7379C40.0025 40.8619 40.1706 40.9316 40.3458 40.9315C40.5211 40.9314 40.6891 40.8616 40.8128 40.7376L40.3456 40.2717ZM47.587 33.9435C47.8443 33.6854 47.8437 33.2676 47.5856 33.0104C47.3275 32.7531 46.9098 32.7537 46.6525 33.0117L47.587 33.9435ZM79.6803 40.75C79.6803 62.2506 62.2506 79.6803 40.75 79.6803V81C62.9794 81 81 62.9794 81 40.75H79.6803ZM40.75 79.6803C19.2494 79.6803 1.81967 62.2506 1.81967 40.75H0.5C0.5 62.9794 18.5206 81 40.75 81V79.6803ZM1.81967 40.75C1.81967 19.2494 19.2494 1.81967 40.75 1.81967V0.5C18.5206 0.5 0.5 18.5206 0.5 40.75H1.81967ZM40.75 1.81967C62.2506 1.81967 79.6803 19.2494 79.6803 40.75H81C81 18.5206 62.9794 0.5 40.75 0.5V1.81967ZM53.7139 40.7397C53.7139 48.0336 47.8142 53.9594 40.5348 53.9594V55.2791C48.5475 55.2791 55.0336 48.758 55.0336 40.7397H53.7139ZM40.5348 53.9594C33.2526 53.9594 27.3333 48.0532 27.3333 40.7621H26.0137C26.0137 48.7832 32.5249 55.2791 40.5348 55.2791V53.9594ZM27.3333 40.7613C27.3308 38.5871 28.1441 36.0727 29.4228 33.483C30.6961 30.9042 32.4019 28.3078 34.1194 25.9847C35.8352 23.6639 37.553 21.6289 38.8424 20.1736C39.4868 19.4463 40.0234 18.8647 40.3983 18.4656C40.5857 18.2661 40.7326 18.1123 40.8323 18.0086C40.8821 17.9569 40.9202 17.9177 40.9456 17.8916C40.9582 17.8785 40.9677 17.8688 40.974 17.8624C40.9772 17.8592 40.9794 17.8569 40.9809 17.8554C40.9816 17.8546 40.9822 17.854 40.9825 17.8537C40.9827 17.8536 40.9828 17.8535 40.9828 17.8534C40.9829 17.8533 40.9829 17.8534 40.5125 17.3907C40.042 16.928 40.0419 16.9282 40.0417 16.9283C40.0416 16.9284 40.0413 16.9287 40.0411 16.929C40.0405 16.9295 40.0398 16.9302 40.0389 16.9311C40.037 16.9331 40.0343 16.9358 40.0308 16.9394C40.0237 16.9467 40.0134 16.9573 39.9998 16.9712C39.9728 16.999 39.933 17.0399 39.8815 17.0936C39.7783 17.2007 39.6277 17.3585 39.4364 17.5621C39.0539 17.9694 38.5085 18.5604 37.8546 19.2985C36.5475 20.7736 34.8035 22.8396 33.0582 25.2002C31.3145 27.5588 29.5599 30.2246 28.2395 32.8987C26.9244 35.5622 26.0107 38.2918 26.0137 40.7628L27.3333 40.7613ZM40.5125 17.3907C40.0427 17.8541 40.0427 17.8541 40.0427 17.8541C40.0428 17.8542 40.0429 17.8543 40.0431 17.8545C40.0434 17.8548 40.044 17.8554 40.0447 17.8561C40.0462 17.8576 40.0485 17.8599 40.0515 17.8631C40.0579 17.8695 40.0674 17.8792 40.08 17.8922C40.1055 17.9183 40.1435 17.9573 40.1934 18.0091C40.2931 18.1123 40.4402 18.2659 40.6278 18.465C41.0029 18.8631 41.54 19.4435 42.185 20.1693C43.4757 21.6215 45.1951 23.6527 46.913 25.97C48.6325 28.2895 50.3407 30.8827 51.6165 33.46C52.8978 36.048 53.7139 38.5626 53.7139 40.7397H55.0336C55.0336 38.266 54.1171 35.5365 52.7992 32.8745C51.4761 30.2019 49.719 27.5392 47.9732 25.1841C46.2257 22.8269 44.4798 20.7649 43.1715 19.2927C42.517 18.5561 41.9711 17.9663 41.5883 17.5599C41.3968 17.3568 41.2461 17.1994 41.1428 17.0924C41.0912 17.0389 41.0514 16.998 41.0243 16.9703C41.0108 16.9565 41.0005 16.9459 40.9933 16.9387C40.9898 16.9351 40.9871 16.9323 40.9853 16.9304C40.9843 16.9295 40.9836 16.9287 40.9831 16.9282C40.9828 16.9279 40.9825 16.9277 40.9824 16.9275C40.9823 16.9274 40.9821 16.9272 40.5125 17.3907ZM39.7976 18.2192L39.8199 63.1154L41.1396 63.1147L41.1172 18.2186L39.7976 18.2192ZM33.1046 42.3816L39.8787 49.1646L40.8125 48.232L34.0384 41.449L33.1046 42.3816ZM40.8128 49.1642L47.587 42.3699L46.6525 41.4382L39.8783 48.2325L40.8128 49.1642ZM33.1046 33.9551L39.8787 40.7379L40.8125 39.8054L34.0384 33.0225L33.1046 33.9551ZM40.8128 40.7376L47.587 33.9435L46.6525 33.0117L39.8783 39.8057L40.8128 40.7376Z" fill="#D1E0E0"/>
</svg>
