<svg width="131" height="34" viewBox="0 0 131 34" fill="none" xmlns="http://www.w3.org/2000/svg">
<path d="M19.6068 20.4195C22.2685 20.4195 24.4262 18.2336 24.4262 15.5373C24.4262 12.8409 22.2685 10.6551 19.6068 10.6551C16.9451 10.6551 14.7874 12.8409 14.7874 15.5373C14.7874 18.2336 16.9451 20.4195 19.6068 20.4195Z" fill="#00893E"/>
<path d="M18.2897 0.662584L2.5784 9.19015C2.482 9.2227 2.44988 9.32036 2.41774 9.41798L0.00803177 20.3541C-0.0240965 20.5168 0.0401635 20.647 0.200812 20.7121L20.5709 30.444C20.6995 30.5091 20.8601 30.5091 20.9886 30.444L34.0655 24.4226C34.1939 24.3575 34.2903 24.2273 34.3222 24.0971L39.1097 2.25744C39.1419 2.0947 39.0455 1.89941 38.8526 1.86686H38.8204L18.5468 0.662584C18.4504 0.597487 18.354 0.630034 18.2897 0.662584ZM20.6352 29.8256L1.58238 20.7447H8.65089L24.3301 23.0231L20.6352 29.8256ZM24.9405 23.0881L32.973 24.2599L21.4063 29.5652L24.9405 23.0881ZM9.1007 20.1914L15.0768 8.27881L33.4872 6.13063L24.6193 22.4372L9.1007 20.1914ZM33.9046 5.51224L15.3981 7.66039L18.6432 1.2159L38.0172 2.38762L33.9046 5.51224ZM14.6912 7.75805L4.15273 8.99486L17.7757 1.60648L14.6912 7.75805ZM2.93182 9.71091L14.4021 8.37644L8.49023 20.1263H0.618496L2.93182 9.71091ZM33.7762 23.7716L25.2297 22.5348L34.2261 5.96791L38.3707 2.81075L33.7762 23.7716Z" fill="#121C21"/>
<path d="M51.608 17.8807H56.9415V20.3869H48.5555V6.91209H51.64V17.8807H51.608ZM60.026 5.96817C59.0619 5.96817 58.2588 6.78188 58.2588 7.75831C58.2588 8.73477 59.0619 9.54845 60.026 9.54845C60.9897 9.54845 61.7929 8.73477 61.7929 7.75831C61.7929 6.78188 61.022 5.96817 60.026 5.96817ZM58.612 20.4195H61.5039V10.6551H58.612V20.4195ZM70.5643 10.6551H73.2633V19.5732C73.2633 22.8606 71.3674 24.8786 68.283 24.8786C65.4556 24.8786 63.56 23.3488 63.4959 20.9402L66.3874 20.8426C66.4516 21.8841 67.1908 22.5026 68.1869 22.5026C69.5683 22.5026 70.3395 21.5912 70.3395 19.9638V18.4341C69.9218 19.2478 68.99 19.9313 67.6727 19.9313C65.0702 19.9313 63.0459 17.9784 63.0459 15.1792C63.0459 12.5103 64.9737 10.3947 67.7369 10.3947C68.99 10.3947 70.1466 11.1108 70.5643 12.0546V10.6551H70.5643ZM70.532 15.1467C70.532 13.7797 69.6005 12.8033 68.2188 12.8033C66.9015 12.8033 65.9378 13.7471 65.9378 15.1467C65.9378 16.4812 66.8693 17.4902 68.2188 17.4902C69.6005 17.4576 70.532 16.5137 70.532 15.1467ZM80.7494 10.4598C79.5605 10.4272 78.4681 11.1433 78.0185 12.2825V6.94463H75.0947V20.4195H78.0185V15.0165C78.0185 13.6169 78.661 12.8358 79.7534 12.8358C80.8459 12.8358 81.4561 13.5844 81.4561 14.8863V20.4195H84.348V14.4307C84.3799 12.0546 82.9343 10.4598 80.7494 10.4598ZM89.7457 8.34419H86.886V10.6551H85.2798V12.966H86.886V16.7416C86.886 19.2152 88.3642 20.4195 90.2917 20.4195H91.7054L91.6735 17.9458H91.031C90.1311 17.9458 89.7457 17.4902 89.7457 16.6114V12.9986H91.7699V10.6876H89.7457V8.34419ZM106.646 8.34419H103.786V10.6551H102.18V12.966H103.786V16.709C103.786 19.1827 105.264 20.3869 107.192 20.3869H108.606L108.574 17.9133H107.931C107.063 17.9133 106.646 17.4576 106.646 16.5788V12.966H108.67V10.6551H106.646V8.34419ZM131 15.5373C131 18.5317 129.104 20.6148 126.373 20.6148C125.249 20.6473 124.221 20.094 123.578 19.1501V24.0649H120.686V10.6551H123.578V12.0221C124.06 11.0457 125.249 10.4598 126.373 10.4598C129.104 10.4598 131 12.5429 131 15.5373ZM128.076 15.5373C128.076 13.975 127.112 12.8683 125.763 12.8683C124.381 12.8683 123.417 13.975 123.417 15.5373C123.417 17.0996 124.381 18.2062 125.763 18.2062C127.144 18.2062 128.076 17.1321 128.076 15.5373ZM119.401 15.4397C119.401 15.7651 119.369 16.058 119.337 16.351H112.59C112.654 17.5878 113.522 18.4666 114.71 18.4666C115.674 18.4666 116.317 18.076 116.638 17.2949L119.08 17.7506C118.662 19.5082 116.895 20.7124 114.646 20.7124C111.69 20.7124 109.602 18.5642 109.602 15.5698C109.602 12.5429 111.626 10.3947 114.55 10.3947C117.409 10.3622 119.401 12.4452 119.401 15.4397ZM116.542 14.5609C116.542 13.4542 115.738 12.608 114.55 12.608C113.457 12.608 112.622 13.3891 112.59 14.5609H116.542ZM98.0994 14.3656L96.8141 14.1377C96.2358 14.0401 95.9145 13.7471 95.9145 13.324C95.9145 12.7707 96.4606 12.3476 97.1354 12.3476C97.9707 12.3476 98.549 12.8683 98.6455 13.6821L101.28 13.6169C101.184 11.6641 99.545 10.2971 97.1354 10.2971C94.7899 10.2971 93.1191 11.6966 93.1191 13.6495C93.1191 15.342 94.0832 16.351 96.1716 16.6765L97.4566 16.9043C98.292 17.0345 98.7097 17.2623 98.7097 17.8482C98.7097 18.4015 98.1636 18.727 97.3282 18.727C96.3322 18.727 95.6897 18.2062 95.6252 17.3925L92.9585 17.4576C93.023 19.4105 94.8221 20.7775 97.3282 20.7775C99.8021 20.7775 101.537 19.443 101.537 17.4902C101.537 15.8302 100.348 14.691 98.0994 14.3656Z" fill="#121C21"/>
<path d="M49.2051 30.0282V30.1231H50.0311V30.6559H49.2051V33.2925H48.6608V30.6559H48.1603V30.1231H48.6608V30.0282C48.6608 29.1853 49.1364 28.7102 50.0311 28.7735V29.3056C49.4866 29.2616 49.2051 29.4768 49.2051 30.0282Z" fill="#121C21"/>
<path d="M52.0262 30.066V30.6428C51.5571 30.6242 51.0503 30.8649 51.0503 31.6129V33.2925H50.506V30.123H51.0503V30.6559C51.2505 30.2117 51.6321 30.066 52.0262 30.066Z" fill="#121C21"/>
<path d="M52.2758 31.7078C52.2758 30.77 53.0079 30.0412 53.9212 30.0412C54.8347 30.0412 55.5729 30.77 55.5729 31.7078C55.5729 32.6455 54.8347 33.375 53.9212 33.375C53.0079 33.375 52.2758 32.6455 52.2758 31.7078ZM55.0286 31.7078C55.0286 31.0677 54.5469 30.5796 53.9212 30.5796C53.3019 30.5796 52.8201 31.0677 52.8201 31.7078C52.8201 32.3478 53.3019 32.836 53.9212 32.836C54.5469 32.836 55.0286 32.3478 55.0286 31.7078Z" fill="#121C21"/>
<path d="M60.8337 31.3214V33.2925H60.2894V31.3399C60.2894 30.8394 60.014 30.5672 59.6011 30.5672C59.1631 30.5672 58.8316 30.8456 58.8316 31.5304V33.2925H58.2873V31.3399C58.2873 30.8394 58.0308 30.5672 57.6241 30.5672C57.2048 30.5672 56.8232 30.8456 56.8232 31.5304V33.2925H56.2789V30.123H56.8232V30.5479C57.0484 30.1932 57.3738 30.0412 57.7554 30.0412C58.1809 30.0412 58.4936 30.2372 58.6752 30.5796C58.894 30.2186 59.2507 30.0412 59.6574 30.0412C60.3518 30.0412 60.8337 30.5287 60.8337 31.3214Z" fill="#121C21"/>
<path d="M63.09 32.2846L63.5905 31.9931C63.7469 32.4812 64.1224 32.7982 64.7605 32.7982C65.38 32.7982 65.6866 32.5129 65.6866 32.1134C65.6866 31.6569 65.2985 31.505 64.6541 31.3021C63.9534 31.0739 63.2778 30.8525 63.2778 30.0282C63.2778 29.23 63.9222 28.7735 64.6541 28.7735C65.3737 28.7735 65.8929 29.1853 66.1371 29.7429L65.6489 30.0282C65.4925 29.648 65.1861 29.3434 64.6541 29.3434C64.185 29.3434 63.8596 29.5971 63.8596 30.0028C63.8596 30.4146 64.1662 30.5672 64.7794 30.7631C65.5427 31.0168 66.2621 31.2451 66.2621 32.1011C66.2621 32.8807 65.6428 33.375 64.748 33.375C63.9159 33.375 63.3216 32.9501 63.09 32.2846Z" fill="#121C21"/>
<path d="M68.5445 32.8552C68.9763 32.8552 69.2892 32.6524 69.4454 32.3925L69.9084 32.6586C69.6332 33.0897 69.1577 33.375 68.5321 33.375C67.5247 33.375 66.8552 32.6586 66.8552 31.7078C66.8552 30.77 67.5185 30.0412 68.4946 30.0412C69.4393 30.0412 70.0523 30.8271 70.0523 31.714C70.0523 31.7965 70.0461 31.879 70.0337 31.9615H67.4121C67.5185 32.5321 67.9627 32.8552 68.5445 32.8552ZM67.4121 31.4795H69.5017C69.4079 30.8525 68.9637 30.5603 68.4946 30.5603C67.9063 30.5603 67.4996 30.9281 67.4121 31.4795Z" fill="#121C21"/>
<path d="M72.2597 30.066V30.6428C71.7906 30.6242 71.2838 30.8649 71.2838 31.6129V33.2925H70.7395V30.123H71.2838V30.6559C71.484 30.2117 71.8656 30.066 72.2597 30.066Z" fill="#121C21"/>
<path d="M75.6315 30.123L74.3802 33.2925H73.742L72.4907 30.123H73.0788L74.0612 32.7026L75.0434 30.123H75.6315Z" fill="#121C21"/>
<path d="M76.0623 29.1791C76.0623 28.9763 76.2248 28.8051 76.4313 28.8051C76.6315 28.8051 76.7942 28.9763 76.7942 29.1791C76.7942 29.3819 76.6315 29.5462 76.4313 29.5462C76.2248 29.5462 76.0623 29.3819 76.0623 29.1791ZM76.1561 30.1231H76.7004V33.2925H76.1561V30.1231Z" fill="#121C21"/>
<path d="M77.4192 31.7078C77.4192 30.77 78.1199 30.0412 79.0646 30.0412C79.6841 30.0412 80.2096 30.3706 80.4475 30.8711L79.9907 31.1371C79.8343 30.8016 79.4839 30.5796 79.0646 30.5796C78.4391 30.5796 77.9635 31.0677 77.9635 31.7078C77.9635 32.3417 78.4391 32.8298 79.0646 32.8298C79.4902 32.8298 79.8343 32.6077 80.0094 32.2784L80.4724 32.5507C80.2096 33.045 79.6778 33.375 79.0646 33.375C78.1199 33.375 77.4192 32.6455 77.4192 31.7078Z" fill="#121C21"/>
<path d="M82.5423 32.8552C82.9741 32.8552 83.2869 32.6524 83.4432 32.3925L83.9062 32.6586C83.631 33.0897 83.1554 33.375 82.5299 33.375C81.5225 33.375 80.853 32.6586 80.853 31.7078C80.853 30.77 81.5163 30.0412 82.4924 30.0412C83.4371 30.0412 84.0501 30.8271 84.0501 31.714C84.0501 31.7965 84.0438 31.879 84.0314 31.9615H81.4099C81.5163 32.5321 81.9605 32.8552 82.5423 32.8552ZM81.4099 31.4795H83.4995C83.4057 30.8525 82.9615 30.5603 82.4924 30.5603C81.9041 30.5603 81.4974 30.9281 81.4099 31.4795Z" fill="#121C21"/>
<path d="M88.097 28.856V33.2925H87.6277L85.3754 29.9773V33.2925H84.7936V28.856H85.2627L87.5151 32.1643V28.856H88.097Z" fill="#121C21"/>
<path d="M88.8651 31.7078C88.8651 30.77 89.5972 30.0412 90.5106 30.0412C91.424 30.0412 92.1623 30.77 92.1623 31.7078C92.1623 32.6455 91.424 33.375 90.5106 33.375C89.5972 33.375 88.8651 32.6455 88.8651 31.7078ZM91.618 31.7078C91.618 31.0677 91.1363 30.5796 90.5106 30.5796C89.8913 30.5796 89.4094 31.0677 89.4094 31.7078C89.4094 32.3478 89.8913 32.836 90.5106 32.836C91.1363 32.836 91.618 32.3478 91.618 31.7078Z" fill="#121C21"/>
<path d="M96.9977 30.123L96.0279 33.2925H95.4711L94.7391 30.9474L94.0072 33.2925H93.4503L92.4805 30.123H93.0499L93.738 32.5321L94.4763 30.123H95.0019L95.7402 32.5383L96.4283 30.123H96.9977Z" fill="#121C21"/>
</svg>
